<?xml version="1.0" standalone="no"?>
<!DOCTYPE svg PUBLIC "-//W3C//DTD SVG 20010904//EN"
 "http://www.w3.org/TR/2001/REC-SVG-20010904/DTD/svg10.dtd">
<svg version="1.0" xmlns="http://www.w3.org/2000/svg"
 width="1130.000000pt" height="1280.000000pt" viewBox="0 0 1130.000000 1280.000000"
 preserveAspectRatio="xMidYMid meet">
<metadata>
Created by potrace 1.15, written by Peter Selinger 2001-2017
</metadata>
<g transform="translate(0.000000,1280.000000) scale(0.100000,-0.100000)"
fill="#2196f3" stroke="none">
<path d="M10604 12790 c-29 -12 -38 -27 -44 -80 l-5 -45 -93 -3 c-82 -2 -93
-5 -90 -20 3 -14 18 -17 96 -20 50 -1 92 -7 92 -12 0 -5 -42 -11 -92 -12 -79
-3 -93 -6 -96 -20 -3 -16 6 -18 92 -18 79 0 96 -3 96 -15 0 -12 -17 -15 -95
-15 -88 0 -95 -1 -95 -20 0 -19 7 -20 95 -20 123 0 125 -18 3 -22 -78 -3 -93
-6 -96 -20 -3 -15 8 -18 89 -20 63 -2 94 -7 97 -15 3 -10 -20 -13 -92 -13 -89
0 -96 -1 -96 -20 0 -19 7 -20 95 -20 78 0 95 -3 95 -15 0 -12 -17 -15 -96 -15
-86 0 -95 -2 -92 -17 3 -15 17 -18 96 -21 50 -1 92 -7 92 -12 0 -5 -42 -11
-92 -12 -78 -3 -93 -6 -96 -20 -3 -15 8 -18 89 -20 63 -2 94 -7 97 -15 3 -10
-20 -13 -92 -13 -89 0 -96 -1 -96 -20 0 -19 7 -20 96 -20 72 0 95 -3 92 -12
-3 -9 -34 -14 -97 -16 -81 -2 -92 -5 -89 -20 3 -14 18 -17 96 -20 50 -1 92 -7
92 -12 0 -5 -42 -11 -92 -12 -79 -3 -93 -6 -96 -20 -3 -16 6 -18 92 -18 79 0
96 -3 96 -15 0 -12 -17 -15 -95 -15 -88 0 -95 -1 -95 -20 0 -19 7 -20 95 -20
123 0 125 -18 3 -22 -85 -3 -93 -5 -93 -23 0 -18 8 -20 93 -23 122 -4 120 -22
-3 -22 -88 0 -95 -1 -95 -20 0 -19 7 -20 96 -20 72 0 95 -3 92 -12 -3 -9 -34
-14 -97 -16 -81 -2 -92 -5 -89 -20 3 -14 18 -17 96 -20 50 -1 92 -7 92 -12 0
-5 -42 -11 -92 -12 -78 -3 -93 -6 -96 -20 -3 -15 8 -18 89 -20 63 -2 94 -7 97
-15 3 -10 -20 -13 -92 -13 -89 0 -96 -1 -96 -20 0 -19 7 -20 95 -20 l95 0 0
-560 0 -560 -150 0 -150 0 0 -850 0 -850 380 0 380 0 0 850 0 850 -150 0 -150
0 0 560 0 560 95 0 c88 0 95 1 95 20 0 19 -7 20 -96 20 -72 0 -95 3 -92 13 3
8 34 13 97 15 81 2 92 5 89 20 -3 14 -18 17 -96 20 -50 1 -92 7 -92 12 0 5 42
11 92 12 78 3 93 6 96 20 3 15 -8 18 -89 20 -63 2 -94 7 -97 16 -3 9 20 12 92
12 89 0 96 1 96 20 0 19 -7 20 -95 20 -123 0 -125 18 -2 22 84 3 92 5 92 23 0
18 -8 20 -92 23 -51 1 -93 7 -93 12 0 5 42 11 92 12 79 3 93 6 96 21 3 15 -6
17 -92 17 -79 0 -96 3 -96 15 0 12 17 15 96 15 86 0 95 2 92 18 -3 14 -17 17
-96 20 -50 1 -92 7 -92 12 0 5 42 11 92 12 78 3 93 6 96 20 3 15 -8 18 -89 20
-63 2 -94 7 -97 16 -3 9 20 12 92 12 89 0 96 1 96 20 0 19 -7 20 -95 20 -78 0
-95 3 -95 15 0 12 17 15 96 15 86 0 95 2 92 18 -3 14 -17 17 -96 20 -50 1 -92
7 -92 12 0 5 42 11 92 12 79 3 93 6 96 21 3 15 -6 17 -92 17 -79 0 -96 3 -96
15 0 12 17 15 95 15 88 0 95 1 95 20 0 19 -7 20 -96 20 -72 0 -95 3 -92 13 3
8 34 13 97 15 81 2 92 5 89 20 -3 14 -18 17 -96 20 -122 4 -120 22 3 22 88 0
95 1 95 20 0 19 -7 20 -95 20 -78 0 -95 3 -95 15 0 12 17 15 96 15 86 0 95 2
92 18 -3 14 -17 17 -96 20 -50 1 -92 7 -92 12 0 5 42 11 92 12 78 3 93 6 96
20 3 15 -8 18 -90 20 l-93 3 -3 30 c-5 59 -13 75 -42 90 -32 17 -45 18 -76 5z"/>
<path d="M6373 12175 c-16 -19 -48 -70 -71 -114 -35 -65 -44 -95 -52 -163 -11
-93 -14 -610 -4 -682 l7 -46 354 0 355 0 -4 313 c-5 351 -8 370 -78 450 -43
48 -168 138 -313 223 -114 68 -151 71 -194 19z m184 -37 c201 -118 310 -203
343 -268 33 -66 40 -135 40 -410 l0 -270 -334 0 -335 0 -6 43 c-4 23 -3 197 2
387 l8 345 32 65 c18 36 49 86 68 113 47 63 69 62 182 -5z"/>
<path d="M618 12097 c-107 -34 -178 -130 -186 -251 -7 -120 49 -340 118 -461
l30 -52 0 -875 0 -874 -34 -64 c-65 -123 -116 -311 -116 -429 0 -158 113 -281
257 -281 71 0 125 24 175 76 88 92 101 202 49 408 -17 67 -48 155 -71 200
l-40 82 0 885 0 885 30 56 c60 110 111 296 112 408 1 96 -24 163 -82 221 -69
69 -157 93 -242 66z"/>
<path d="M1313 12096 c-60 -19 -114 -66 -149 -128 -27 -49 -29 -60 -29 -158 1
-130 34 -262 100 -396 l45 -90 0 -869 0 -869 -39 -76 c-92 -178 -134 -409 -95
-523 35 -102 136 -177 239 -177 69 0 119 20 169 68 90 86 108 205 62 397 -25
101 -72 227 -100 267 -14 20 -16 123 -16 911 l0 889 40 81 c85 176 122 395 85
507 -25 74 -94 143 -166 164 -62 19 -90 19 -146 2z"/>
<path d="M2013 12096 c-64 -21 -118 -69 -152 -138 -27 -52 -31 -72 -31 -139 0
-107 47 -287 105 -404 l45 -91 0 -869 0 -869 -39 -76 c-94 -182 -135 -407 -95
-523 20 -58 86 -134 139 -158 50 -23 142 -25 193 -4 47 20 108 78 135 130 55
106 20 348 -79 550 l-34 70 0 886 0 886 30 54 c61 111 110 299 110 423 0 130
-74 238 -184 271 -59 18 -87 18 -143 1z"/>
<path d="M4770 11517 c-121 -34 -211 -110 -267 -225 l-38 -76 -3 -1193 -2
-1193 660 0 660 0 -2 1193 -3 1192 -32 67 c-44 94 -109 160 -202 206 l-75 37
-325 2 c-239 2 -338 -1 -371 -10z"/>
<path d="M6275 11115 c-22 -8 -41 -15 -43 -15 -2 0 -12 -19 -22 -42 -19 -41
-20 -71 -20 -565 0 -520 0 -523 -20 -523 -34 0 -79 -28 -95 -60 -15 -29 -20
-105 -9 -134 3 -9 15 -16 25 -16 16 0 12 -9 -21 -52 -22 -29 -50 -78 -62 -108
-22 -53 -23 -70 -26 -412 l-3 -358 623 0 623 0 3 324 c3 274 1 333 -13 386
-18 71 -51 138 -91 188 -25 31 -26 32 -6 32 45 0 36 152 -10 185 -12 8 -37 18
-55 21 l-32 6 -3 532 c-3 581 -2 571 -62 604 -27 15 -72 17 -336 19 -248 2
-313 0 -345 -12z"/>
<path d="M9410 10986 c0 -7 -9 -16 -20 -19 -11 -3 -20 -12 -20 -21 0 -9 8 -16
20 -16 14 0 20 -7 20 -24 0 -15 -7 -26 -20 -29 -11 -3 -20 -12 -20 -21 0 -9 8
-16 20 -16 16 0 20 -7 20 -30 0 -23 -4 -30 -20 -30 -12 0 -20 -7 -20 -16 0 -9
9 -18 20 -21 13 -3 20 -14 20 -29 0 -23 -3 -24 -60 -24 l-60 0 0 -940 0 -940
375 0 375 0 0 940 0 940 -65 0 c-62 0 -65 1 -65 24 0 18 6 25 22 28 31 4 36
36 6 40 -17 2 -23 9 -23 28 0 19 6 26 23 28 30 4 25 36 -6 40 -31 5 -31 49 1
54 12 2 22 10 22 18 0 8 -10 16 -22 18 -13 2 -23 10 -23 18 0 12 -40 14 -250
14 -206 0 -250 -2 -250 -14z"/>
<path d="M870 7909 c-169 -20 -310 -71 -372 -132 -52 -53 -71 -109 -71 -212 0
-82 3 -96 33 -155 59 -118 182 -292 373 -527 l99 -123 219 0 219 0 62 76 c196
238 357 464 414 579 25 52 29 71 29 145 0 102 -15 149 -63 202 -58 64 -147
103 -307 134 -95 19 -519 28 -635 13z m664 -39 c195 -42 292 -111 316 -226 19
-93 8 -162 -40 -251 -56 -105 -167 -261 -319 -451 l-126 -157 -212 -3 -212 -2
-115 144 c-248 308 -362 486 -376 585 -12 87 3 176 37 225 52 73 197 132 383
155 41 5 185 8 320 6 203 -3 262 -7 344 -25z"/>
<path d="M9400 7481 c-126 -13 -157 -41 -153 -137 3 -50 1 -54 -22 -60 -36 -9
-31 -28 5 -20 17 3 30 4 30 2 0 -1 16 -120 35 -262 19 -142 71 -542 115 -889
142 -1114 164 -1261 188 -1295 10 -14 34 -33 53 -42 127 -63 808 -71 1014 -13
50 14 82 39 104 82 13 25 29 160 91 773 69 671 125 1120 176 1405 34 187 44
235 52 235 4 0 8 33 10 74 2 65 0 77 -20 101 -13 14 -41 31 -63 37 -47 12
-1499 20 -1615 9z"/>
<path d="M6144 7265 c31 -29 32 -48 7 -116 -53 -137 -198 -256 -411 -336 -247
-92 -416 -236 -474 -401 l-15 -42 884 0 884 0 38 77 c36 74 38 81 38 177 0 92
-3 106 -30 160 -78 154 -292 303 -595 413 -118 43 -295 93 -328 93 l-25 0 27
-25z m165 -36 c280 -82 518 -204 646 -333 81 -81 119 -158 123 -253 4 -77 -5
-118 -46 -200 l-25 -53 -864 0 -864 0 6 23 c20 64 103 169 184 232 76 58 164
105 288 154 135 54 232 113 307 188 76 76 119 156 120 224 1 27 5 49 10 49 4
0 56 -14 115 -31z"/>
<path d="M1820 6834 c-141 -24 -192 -45 -233 -94 -51 -60 -62 -176 -26 -282
22 -65 175 -384 229 -475 l30 -53 125 0 124 0 41 73 c77 139 189 373 214 449
40 119 33 225 -21 288 -54 64 -139 89 -323 95 -74 2 -146 2 -160 -1z m348 -39
c86 -24 136 -70 152 -136 28 -114 -5 -218 -164 -524 l-93 -180 -116 -3 -115
-3 -25 43 c-57 98 -198 392 -222 462 -27 79 -32 156 -15 218 20 71 95 118 224
139 81 13 305 3 374 -16z"/>
<path d="M950 6320 l0 -410 200 0 200 0 0 410 0 410 -200 0 -200 0 0 -410z"/>
<path d="M4920 6689 c-122 -24 -252 -124 -344 -263 -69 -106 -516 -982 -544
-1066 -74 -228 -45 -422 94 -610 47 -64 94 -100 131 -100 13 0 36 12 52 28 43
39 951 1847 951 1892 0 46 -28 87 -75 110 -33 16 -60 20 -131 19 -49 -1 -109
-5 -134 -10z"/>
<path d="M5237 6301 c-29 -35 -42 -127 -32 -226 l7 -65 969 0 969 0 0 120 c0
134 -12 174 -56 190 -15 6 -378 10 -929 10 l-903 0 -25 -29z"/>
<path d="M5143 5931 c-85 -14 -99 -54 -77 -220 70 -534 268 -936 526 -1067
101 -51 130 -54 588 -54 459 0 478 2 587 56 162 79 331 323 422 607 52 163
111 465 111 569 0 62 -29 97 -90 109 -53 10 -2005 10 -2067 0z"/>
<path d="M1837 5903 c-4 -3 -7 -129 -7 -280 l0 -273 110 0 110 0 0 280 0 280
-103 0 c-57 0 -107 -3 -110 -7z"/>
<path d="M957 5883 c-4 -3 -7 -370 -7 -814 l0 -807 28 -53 c73 -139 246 -150
337 -21 l30 44 3 829 2 829 -193 0 c-107 0 -197 -3 -200 -7z"/>
<path d="M1837 5163 c-11 -264 -8 -923 3 -965 14 -47 53 -94 84 -100 36 -7 83
17 106 54 19 32 20 49 20 606 l0 572 -103 0 -104 0 -6 -167z"/>
<path d="M9552 4743 c-13 -36 -23 -330 -14 -446 7 -86 8 -90 44 -123 l38 -34
545 0 c607 0 583 -3 627 67 22 37 23 45 23 258 0 154 -4 233 -13 264 -13 42
-15 43 -45 37 -311 -58 -516 -74 -744 -57 -138 10 -313 33 -419 56 -27 6 -32
4 -42 -22z"/>
<path d="M9172 3355 c-61 -19 -103 -55 -137 -116 l-30 -54 0 -635 c0 -709 -2
-683 69 -755 79 -78 37 -75 948 -75 l808 0 0 -35 0 -35 -802 0 c-556 0 -815
-4 -843 -11 -63 -18 -118 -62 -150 -121 l-30 -53 0 -640 0 -641 26 -49 c28
-56 91 -109 147 -125 24 -6 362 -10 982 -10 l945 0 50 24 c59 27 106 77 129
137 15 40 16 108 14 679 l-3 635 -28 48 c-16 27 -46 60 -67 75 -38 26 -39 28
-40 90 0 34 4 62 10 62 18 0 81 64 103 104 22 41 22 41 22 691 l0 650 -22 42
c-29 54 -86 100 -147 118 -70 21 -1887 21 -1954 0z"/>
<path d="M5500 3257 c0 -51 4 -68 20 -82 14 -13 20 -31 20 -62 0 -31 -6 -48
-20 -60 -19 -17 -20 -30 -20 -363 l0 -345 -85 -39 c-119 -54 -226 -127 -324
-221 -385 -368 -487 -926 -256 -1397 84 -169 217 -331 354 -432 61 -44 65 -50
66 -89 3 -55 26 -99 67 -129 l33 -23 577 0 c569 0 577 0 605 21 54 40 75 83
71 141 -5 52 -4 53 36 80 59 38 193 177 249 255 98 139 166 294 203 468 22
103 25 353 5 445 -67 317 -226 573 -469 755 -78 58 -229 138 -324 171 l-68 24
0 343 0 344 63 -7 c72 -8 288 -62 301 -75 5 -5 -1 -31 -15 -62 -21 -47 -24
-67 -24 -188 0 -122 3 -144 29 -222 98 -300 353 -548 638 -620 170 -43 332 -9
442 93 61 56 112 160 126 261 48 335 -220 747 -580 891 -174 69 -373 58 -486
-28 l-34 -26 -110 35 c-97 32 -225 59 -315 68 -30 3 -30 4 -33 71 l-3 67 -369
0 -370 0 0 -63z"/>
<path d="M2100 2404 c-93 -24 -178 -72 -245 -138 -72 -71 -71 -69 -360 -676
-519 -1092 -725 -1532 -725 -1550 0 -11 4 -20 9 -20 12 0 469 608 993 1321 34
46 67 81 86 88 29 12 38 10 124 -33 140 -69 252 -80 398 -40 121 34 231 116
304 226 126 189 110 453 -36 633 -140 170 -348 242 -548 189z m286 -189 c75
-37 148 -110 182 -183 24 -50 27 -69 27 -157 -1 -89 -4 -107 -28 -157 -79
-161 -269 -251 -433 -203 -116 33 -194 101 -248 215 -87 186 7 411 210 496 51
21 71 24 145 21 70 -2 96 -8 145 -32z"/>
<path d="M384 2346 c-204 -66 -328 -198 -369 -391 -43 -202 4 -364 147 -508
114 -115 218 -156 393 -157 128 0 246 36 325 99 61 48 76 54 109 37 16 -9 80
-69 142 -135 85 -90 117 -117 130 -112 10 3 49 70 89 150 l71 144 -53 91
c-146 255 -356 570 -437 658 -100 108 -200 148 -369 148 -83 -1 -123 -6 -178
-24z"/>
<path d="M1596 1068 c-42 -57 -76 -110 -76 -118 -1 -16 683 -699 758 -758 42
-33 42 -34 42 -10 0 15 -123 207 -324 506 l-324 483 -76 -103z"/>
</g>
</svg>
